<?xml version="1.0" encoding="UTF-8" standalone="no"?>
<!-- Created with Inkscape (http://www.inkscape.org/) -->

<svg
   version="1.1"
   id="svg2"
   width="500"
   height="500"
   viewBox="0 0 500 500"
   sodipodi:docname="1.svg"
   inkscape:version="1.2.2 (732a01da63, 2022-12-09)"
   xmlns:inkscape="http://www.inkscape.org/namespaces/inkscape"
   xmlns:sodipodi="http://sodipodi.sourceforge.net/DTD/sodipodi-0.dtd"
   xmlns="http://www.w3.org/2000/svg"
   xmlns:svg="http://www.w3.org/2000/svg">
  <defs
     id="defs6" />
  <sodipodi:namedview
     id="namedview4"
     pagecolor="#ffffff"
     bordercolor="#000000"
     borderopacity="0.25"
     inkscape:showpageshadow="2"
     inkscape:pageopacity="0.0"
     inkscape:pagecheckerboard="0"
     inkscape:deskcolor="#d1d1d1"
     showgrid="false"
     inkscape:zoom="1.628"
     inkscape:cx="231.26536"
     inkscape:cy="250.30713"
     inkscape:window-width="1920"
     inkscape:window-height="1001"
     inkscape:window-x="1911"
     inkscape:window-y="-9"
     inkscape:window-maximized="1"
     inkscape:current-layer="g8" />
  <g
     inkscape:groupmode="layer"
     inkscape:label="Image"
     id="g8">
    <path
       style="fill:#000000"
       d="m 259,447.59188 c 0,-0.35276 1.125,-1.06911 2.5,-1.59188 3.04154,-1.15639 3.14126,-3.05263 0.97688,-18.57593 C 260.44131,412.82472 260.51449,413 256.45567,413 c -4.7139,0 -6.00133,2.50959 -7.26461,14.16082 -0.5761,5.31345 -1.77662,11.07085 -2.66781,12.79422 -4.64414,8.98077 -20.15548,9.50009 -25.54195,0.85514 -1.90917,-3.0641 -2.01259,-4.2613 -1.39113,-16.10431 0.61917,-11.79929 0.52513,-12.90487 -1.2094,-14.2182 -1.72843,-1.30871 -1.55677,-1.42553 2.11923,-1.44221 2.2,-0.01 5.00119,0.25023 6.22487,0.57825 2.22437,0.59628 2.22441,0.59677 0.19523,2.2399 -2.24229,1.8157 -4.41282,17.57195 -3.28625,23.85553 1.56152,8.70956 14.00784,12.36571 19.2798,5.6635 4.13263,-5.25378 5.73073,-24.87851 2.33635,-28.69042 -1.71899,-1.93043 -1.66778,-1.95318 2.88966,-1.28401 2.77213,0.40703 8.47813,0.0636 14.17593,-0.8533 11.02384,-1.77391 14.96757,-1.28168 17.71496,2.21106 2.67172,3.39654 2.47574,7.47889 -0.53055,11.05166 -3.35944,3.99247 -3.32999,4.08637 3.25,10.36171 6.69423,6.38429 9.69934,8.19792 12.40934,7.48924 1.218,-0.31851 1.80964,-0.0697 1.5696,0.66011 -0.21191,0.64422 -2.57305,1.31196 -5.24699,1.48386 -4.85769,0.31228 -4.86719,0.3067 -11.47698,-6.73603 -4.71411,-5.02289 -7.56587,-7.2387 -9.92295,-7.71012 l -3.30768,-0.66153 0.66636,4.39756 c 1.43088,9.443 1.68373,10.04644 4.74969,11.33558 2.96756,1.24776 2.94432,1.26327 -2.84922,1.90243 -3.21264,0.35443 -6.85367,0.92531 -8.09117,1.26862 -1.2375,0.34331 -2.25,0.33558 -2.25,-0.0172 z m 15.54545,-22.04643 C 279.63743,420.45348 276.76279,411 270.12244,411 c -5.10965,0 -5.90832,3.31955 -3.54879,14.75 0.63642,3.08308 4.79078,2.97648 7.9718,-0.20455 z m -83.95181,13.44507 c -21.02984,-8.21216 -16.02766,-36.0212 6.47208,-35.98075 5.36317,0.01 14.83962,3.41001 16.36025,5.87044 C 214.30488,410.30233 213.03686,417 211.88871,417 211.39992,417 211,415.62955 211,413.95455 c 0,-5.91482 -8.83103,-11.01058 -15.67825,-9.04683 -7.96603,2.28463 -12.32281,8.40327 -12.3202,17.30244 0.004,12.73297 10.44134,20.47513 19.86123,14.73221 4.05234,-2.47054 4.8786,-2.0035 2.60211,1.47087 -2.11248,3.22406 -7.55255,3.43523 -14.87125,0.57728 z m 112.85687,-0.24239 2.95051,-2.47962 -3.31973,-11.38426 C 298.22868,408.24338 297.62173,407 294.35103,407 c -3.96199,0 -1.84145,-1.49642 4.80288,-3.38929 7.25301,-2.06627 7.67378,-2.03048 5.03465,0.42825 -2.65491,2.47342 -2.90559,0.23123 1.7684,15.81751 4.73235,15.7809 4.38292,15.14353 8.30206,15.14353 4.33613,0 2.45559,1.43247 -4.47194,3.40644 -3.1421,0.89533 -6.5171,1.89639 -7.5,2.22459 -1.0238,0.34186 -0.52689,-0.46235 1.16343,-1.8829 z M 331,430.26412 c 0,-0.34937 0.94415,-1.64022 2.09812,-2.86856 l 2.09812,-2.23335 -6.53082,-13.58111 C 325.07347,404.1115 321.63638,398 321.02746,398 c -3.00124,0 -9.03903,4.19792 -9.67347,6.72571 -0.61416,2.44702 -0.75029,2.51649 -1.44571,0.73784 -1.55366,-3.97376 -1.04749,-6.21355 1.4042,-6.21355 3.31292,0 25.2365,-10.63538 26.53641,-12.87311 0.59966,-1.03229 1.10398,-1.50046 1.1207,-1.04038 0.0167,0.46008 1.91906,-0.55242 4.22741,-2.25 4.12063,-3.03034 7.37336,-4.25687 5.003,-1.88651 -1.99038,1.99038 -1.45084,2.64458 4.77148,5.7856 8.72679,4.40527 9.30932,4.2182 8.51856,-2.7356 -0.94192,-8.28305 -1.29901,-9.09177 -4.16748,-9.43819 -2.47325,-0.29869 -2.39071,-0.44859 1.96124,-3.56181 5.52747,-3.95414 5.92129,-4.00048 4.24971,-0.5 -0.96572,2.02232 -1.12676,5.16157 -0.60861,11.86367 0.65028,8.41105 0.98943,9.50167 4.39908,14.14655 4.03224,5.493 5.40845,6.38402 8.57957,5.55475 3.274,-0.85617 2.52036,0.18618 -3.1388,4.34122 -8.05614,5.91495 -8.50855,6.12794 -6.49776,3.05908 2.36361,-3.60732 2.24621,-4.24819 -1.78395,-9.73838 -3.00326,-4.09125 -4.77065,-5.31586 -12.09997,-8.38398 -10.69715,-4.47791 -12.66294,-4.61866 -11.77301,-0.84291 0.53294,2.26118 0.4119,2.52781 -0.68095,1.5 -1.77348,-1.66792 -4.07575,-1.57525 -8.90887,0.35858 -5.32388,2.13019 -5.22493,3.07399 1.87938,17.92556 5.84151,12.2117 5.93554,12.33628 9.54715,12.64951 l 3.64754,0.31635 -7.54715,3.69967 C 334.39622,429.23449 331,430.6135 331,430.26412 Z m -179.5,-8.28387 c -9.48731,-5.12961 -10.55479,-5.94975 -7.76254,-5.96387 3.63047,-0.0184 4.31913,-0.90357 12.57992,-16.17031 5.20892,-9.62658 5.39034,-10.40657 3.02763,-13.01733 -2.78222,-3.07432 0.14912,-2.10511 9.90261,3.27415 11.50185,6.34353 11.25061,6.08815 9.38214,9.53683 l -1.54968,2.86028 -0.04,-2.59501 c -0.0445,-2.88226 -1.85802,-4.81095 -6.95286,-7.39428 -3.36047,-1.70392 -3.44028,-1.69427 -5.20305,0.62941 -0.98463,1.29794 -2.57965,4.1027 -3.54449,6.2328 -1.74687,3.85663 -1.74401,3.88122 0.67995,5.84403 1.71009,1.38474 3.3695,1.81932 5.57832,1.46087 l 3.14413,-0.51022 -2.12102,3.90385 c -1.9959,3.67356 -2.13974,3.75657 -2.43832,1.40708 C 165.87277,409.03979 161.73956,406 158.73353,406 c -1.71636,0 -7.21262,11.30914 -6.45534,13.28256 0.30835,0.80355 2.61459,2.45531 5.12498,3.67057 4.30054,2.08185 4.74806,2.11791 7.74292,0.62388 1.74821,-0.87213 3.33499,-1.42926 3.52617,-1.23808 0.5045,0.5045 -4.42889,5.66777 -5.37451,5.62495 -0.43876,-0.0199 -5.74775,-2.7125 -11.79775,-5.98363 z m -25,-15.53642 c -5.86836,-3.01995 -8.14904,-8.68769 -5.10795,-12.69383 2.10481,-2.77275 2.61482,-2.07924 1.9638,2.67044 -1.0765,7.85391 5.97234,12.34228 11.1896,7.12501 3.01763,-3.01763 3.05583,-5.03665 0.25953,-13.71888 -2.66195,-8.26509 -1.9342,-11.42781 3.27499,-14.23267 4.45019,-2.39618 7.77795,-1.66746 12.61084,2.76156 3.22227,2.95299 3.49459,3.58834 2.63864,6.15618 -1.57471,4.72415 -3.32945,4.24843 -3.32945,-0.90263 0,-4.07773 -0.32392,-4.72516 -3.0762,-6.14841 -2.81939,-1.45797 -3.28303,-1.45525 -5.55374,0.0326 -3.67659,2.409 -3.89977,4.08441 -1.5259,11.45506 2.59085,8.04431 2.68993,11.83751 0.3836,14.68472 -3.61936,4.46818 -8.54675,5.4771 -13.72776,2.81087 z m 258.75304,-18.59079 c -0.87867,-0.87867 0.3592,-2.8756 5.11776,-8.25602 23.13553,-26.15894 36.13036,-48.20418 44.98986,-76.32358 27.4704,-87.18903 -16.97906,-183.94881 -103.78004,-225.913502 -6.89191,-3.331954 -9.28716,-4.961118 -8.87461,-6.036204 0.79106,-2.061454 3.84939,-1.123956 15.60213,4.782659 C 391.42978,102.80392 432.0257,155.71092 444.11489,214 c 3.46,16.68268 3.48359,56.05831 0.0431,72 -6.67758,30.94126 -22.18366,62.53671 -42.69692,87 -9.62527,11.47871 -14.82102,16.24009 -16.20807,14.85304 z M 111.84111,379.79908 C 81.499587,344.98162 65.550879,309.81556 61.041857,267.78941 54.57233,207.49046 81.152212,143.86958 130.19637,102.26308 c 17.80682,-15.10638 46.8203,-32.427918 48.87619,-29.179913 1.375,2.172302 1.38824,2.160794 -7.35334,6.392327 -52.24018,25.287856 -95.035636,81.708026 -104.746046,138.093816 -9.852567,57.21127 6.25101,111.71276 46.717516,158.11233 5.72883,6.56877 6.36615,7.69009 5.09391,8.96233 -1.27224,1.27225 -2.14097,0.66608 -6.94349,-4.84489 z M 232.25,354.33772 c -0.6875,-0.27741 -1.25,-1.75061 -1.25,-3.27377 v -2.76939 l -10.75,-0.68165 c -16.80531,-1.06563 -22.28361,-2.24513 -31.23355,-6.72472 C 179.35096,336.05046 178,333.87729 178,323.16698 c 0,-8.69641 1.8576,-11.31894 10.9395,-15.44428 13.81784,-6.27657 37.57655,-14.19178 45.92033,-15.29834 l 4.64017,-0.61538 -0.0725,-7.71272 c -0.0399,-4.242 -0.40392,-8.24902 -0.80902,-8.90449 -1.23456,-1.99755 0.46273,-3.42552 3.37846,-2.84237 2.74992,0.54998 2.75556,0.53936 3.44879,-6.49586 0.3819,-3.8757 0.43731,-7.3038 0.12312,-7.61799 -0.31419,-0.31419 -3.83477,2.5932 -7.8235,6.46085 -6.29124,6.10027 -7.9806,7.18997 -12.74882,8.22338 -8.73316,1.89273 -46.62014,3.35336 -51.99657,2.00459 -3.62716,-0.90995 -5.82129,-0.81813 -11.31205,0.47336 -9.13519,2.1487 -16.37398,2.05554 -20.70355,-0.26643 -5.89095,-3.15935 -4.57318,-4.67598 3.7656,-4.33381 4.07178,0.16708 7.25,-0.1148 7.25,-0.64301 C 152,268.43764 148.94841,268 136.97723,268 c -12.92936,0 -14.56294,-0.68318 -10.91599,-4.56518 3.76119,-4.00361 10.26441,-6.54202 18.15916,-7.0881 7.37357,-0.51003 9.15822,-0.14257 21.80743,4.49013 6.85221,2.50959 14.61008,1.76929 34.97217,-3.33723 7.425,-1.86208 15.075,-3.68894 17,-4.0597 4.15386,-0.80002 14.64553,-12.07378 23.08674,-24.8077 l 5.21549,-7.86779 -0.45414,-29.63221 C 245.5983,174.8345 245.71064,165.325 246.09772,170 c 0.38708,4.675 0.75533,29.2 0.81834,54.5 0.063,25.3 0.50736,46.62015 0.98745,47.37812 2.62587,4.14573 3.10068,-0.81656 3.2712,-34.18714 0.0961,-18.80504 0.34696,-32.27848 0.5575,-29.94098 0.42919,4.7652 0.65586,4.83366 7.76779,2.34619 5.87694,-2.05553 7.54027,-4.67432 7.866,-12.38446 0.23039,-5.45313 -0.99493,-10.35477 -3.2754,-13.10256 -1.15395,-1.39042 -0.97098,-2.19154 1.276,-5.58696 3.05902,-4.62248 5.62353,-11.06428 6.37778,-16.02035 1.1074,-7.27659 8.51211,-13.38995 17.75242,-14.65648 L 294,147.72815 v 5.69494 c 0,3.54199 0.37805,5.4613 1,5.07691 0.55,-0.33992 1,-3.0968 1,-6.1264 0,-4.77288 0.23367,-5.44056 1.75,-5.00051 0.9625,0.27933 3.6434,0.99685 5.95755,1.5945 2.31904,0.59891 5.86031,2.64539 7.88987,4.55952 4.31255,4.06725 5.01752,4.18326 8.05881,1.32612 1.89087,-1.77638 2.549,-1.92779 3.81445,-0.87756 2.43555,2.02132 1.80198,4.83197 -1.47068,6.52433 -3.82755,1.9793 -3.77039,3.20345 0.40494,8.67171 7.80872,10.22677 8.74086,12.00929 7.18301,13.73596 -1.25222,1.38793 -1.18539,2.74763 0.52068,10.59233 3.37377,15.51303 3.56683,15.99369 7.05399,17.56266 1.75703,0.79054 4.10287,2.67589 5.21299,4.18968 2.67755,3.6512 1.63087,8.35824 -5.28069,23.74766 -10.39547,23.14677 -11.75528,33.37704 -6.77894,51 3.25981,11.54413 3.45714,19.69898 0.6276,25.93618 l -2.0125,4.43617 5.75315,5.81383 5.75316,5.81382 8.03131,0.017 c 7.09583,0.0151 8.61369,0.36252 13.0313,2.98295 2.75,1.63124 5.95181,2.97357 7.11514,2.98295 2.82611,0.0228 7.56408,3.84924 7.1864,5.80385 -0.42877,2.219 -31.59062,2.64359 -48.73029,0.66396 -10.90185,-1.25917 -15.93881,-1.24729 -41,0.0967 -15.71419,0.84273 -29.58375,1.95466 -30.82125,2.47095 -1.6253,0.67807 -2.25,1.7723 -2.25,3.94109 0,2.37269 -0.52705,3.13467 -2.51299,3.63311 -3.2985,0.82787 -5.48701,-1.08598 -5.48701,-4.7984 0,-4.11803 -2.23716,-3.08835 -3.33001,1.53267 -0.80961,3.42337 -1.11688,3.66774 -4.51933,3.59416 -2.00786,-0.0434 -4.21316,-0.30592 -4.90066,-0.58333 z M 240.23111,350.5 c 0.48693,-1.65 1.78408,-5.80556 2.88254,-9.23457 1.1834,-3.69419 1.87274,-8.17633 1.69177,-11 L 244.5,325.5 l -4.2571,6.41602 c -5.0936,7.67674 -9.15902,19.87421 -7.0767,21.23222 2.71602,1.7713 6.13933,0.48809 7.06491,-2.64824 z m 10.76957,1.99918 c 1.52593,-1.83863 1.00601,-55.89249 -0.5526,-57.4511 -0.53064,-0.53064 -1.5548,-0.60016 -2.2759,-0.15449 -1.45083,0.89666 -2.33361,53.99566 -0.95356,57.35641 0.88124,2.14605 2.13903,2.22892 3.78206,0.24918 z M 229.7076,345.3808 c 1.44809,-0.38825 2.79008,-2.1171 3.90066,-5.0251 0.93118,-2.43827 3.64287,-7.22827 6.02597,-10.64446 3.38505,-4.85247 3.98885,-6.28573 2.76013,-6.55174 -2.27624,-0.49281 -5.72781,3.1473 -8.40584,8.86501 C 231.82065,336.653 231.40441,337 228.02019,337 c -2.00086,0 -4.47654,-0.61321 -5.5015,-1.36268 -1.8096,-1.3232 -1.80148,-1.48818 0.2801,-5.69543 1.17902,-2.38302 1.97637,-4.50007 1.77188,-4.70456 -0.20449,-0.20449 -2.71471,0.81545 -5.57826,2.26652 -3.24965,1.64672 -5.04148,2.14179 -4.76748,1.31723 0.24144,-0.72659 4.04267,-3.1238 8.44717,-5.32713 4.40451,-2.20333 9.58886,-5.3939 11.52078,-7.09015 1.93192,-1.69625 4.49372,-3.77131 5.69289,-4.61124 1.83854,-1.28776 2.08168,-2.14392 1.55111,-5.46194 -0.57546,-3.59873 -0.91218,-3.95386 -3.94236,-4.15793 -7.22556,-0.48661 -38.43374,11.78771 -43.11063,16.95561 -2.81537,3.11095 -2.73412,16.97023 0.11611,19.80598 3.84454,3.825 28.29056,8.30108 35.2076,6.44652 z m -26.37878,-9.47443 c 0.35413,-1.3235 0.6637,-3.75637 0.68793,-5.40637 0.0377,-2.56502 0.19496,-2.74072 1.08472,-1.2118 1.16894,2.00861 0.31747,7.33485 -1.33593,8.3567 -0.71875,0.44421 -0.86498,-0.13794 -0.43672,-1.73853 z m 41.60089,6.34363 c -0.0623,-2.43684 -0.16815,-2.52225 -0.92971,-0.75 -1.17371,2.73138 -1.17371,3.5 0,3.5 0.55,0 0.96837,-1.2375 0.92971,-2.75 z m -55.88616,-9.5 c 0.0712,-6.94583 1.56169,-12.7009 3.94703,-15.23997 4.82339,-5.13427 27.59815,-15.04898 41.25942,-17.96179 2.04605,-0.43625 2.75,-1.18319 2.75,-2.91795 0,-2.22187 -0.22355,-2.29573 -4.75,-1.56939 -13.06629,2.09668 -46.87948,15.38446 -50.34748,19.78536 -3.32428,4.21853 -2.44157,16.43316 1.42813,19.76173 4.20051,3.61313 5.66171,3.13791 5.7129,-1.85799 z m -1.8891,-5.75 c -0.1,-1.375 -0.46183,-3.625 -0.80415,-5 -0.47785,-1.91943 -0.34272,-2.24032 0.58188,-1.38178 0.69594,0.64622 1.03537,2.75673 0.80414,5 -0.22643,2.19673 -0.47901,2.79655 -0.58187,1.38178 z m 44.85898,4.97368 c 1.12974,-2.21448 4.51389,-6.92593 7.52032,-10.46989 3.00644,-3.54396 5.46625,-7.38256 5.46625,-8.53021 0,-2.05585 -0.0462,-2.05999 -3.12897,-0.28012 -5.08299,2.93472 -13.0176,10.47523 -16.04945,15.25232 -3.27044,5.15303 -3.49993,6.7303 -1.07158,7.36489 4.17411,1.09081 5.25875,0.5925 7.26343,-3.33699 z m 78.79189,-10.07423 c 3.76883,-3.53869 4.01505,-3.66868 1.25848,-0.66443 -4.47201,4.87383 -3.68808,5.36343 2.72406,1.7013 8.07957,-4.61443 10.71214,-9.37235 10.71214,-19.36034 0,-4.44179 -0.33017,-9.87598 -0.73371,-12.07598 -0.60444,-3.29523 -0.54801,-3.55952 0.32027,-1.5 1.42504,3.38013 2.33679,14.92982 1.52161,19.2751 -0.36358,1.93806 -1.78135,5.17459 -3.1506,7.19229 l -2.48954,3.66854 2.71709,-0.31797 c 6.43773,-0.75337 8.87487,-12.40036 5.33777,-25.50903 -2.46782,-9.14585 -4.91276,-13.67834 -5.0215,-9.30893 -0.0592,2.3781 -0.11751,2.40248 -1.19634,0.5 -3.58053,-6.31417 -5.40063,-3.16809 -2.88294,4.98323 2.07653,6.72303 2.53889,12.5045 1.2576,15.7255 -0.37384,0.9398 -0.7257,-1.5352 -0.78191,-5.5 -0.12886,-9.08902 -2.93795,-17.06293 -6.17496,-17.52828 -2.63963,-0.37947 -2.61503,-0.54349 -0.72284,4.81955 0.825,2.3383 1.47038,5.20738 1.43419,6.37573 -0.0362,1.16835 -0.72976,-0.34679 -1.54124,-3.36697 -1.81492,-6.75472 -2.86652,-7.96376 -5.03803,-5.79225 -1.39157,1.39157 -1.46387,2.29374 -0.49286,6.14996 0.62587,2.48555 1.0818,6.0074 1.01318,7.82635 -0.0926,2.45395 -0.32211,1.95493 -0.88973,-1.93428 -1.17659,-8.06175 -1.63327,-8.88729 -3.82109,-6.90734 -1.4374,1.30083 -1.71339,2.76859 -1.38884,7.38612 0.51458,7.32116 -2.17969,11.34854 -13.67599,20.44284 -8.6131,6.81351 -9.35578,7.81984 -5.77103,7.81984 3.43974,0 10.70777,-5.21497 17.72975,-12.72149 3.40872,-3.64393 5.62966,-5.56399 4.93543,-4.26682 -1.52964,2.85816 -9.86087,10.95976 -14.56278,14.1614 -4.32117,2.94238 -4.31721,3.82691 0.0171,3.82691 6.32842,0 19.67122,-13.10395 22.47364,-22.07132 l 1.0715,-3.42868 -0.48105,3.29721 c -0.65178,4.46741 -5.41746,11.14243 -12.03284,16.85373 -3.01363,2.60178 -5.47933,5.02334 -5.47933,5.38125 0,0.35791 2.05194,0.33933 4.55987,-0.0413 3.48845,-0.52941 5.66083,-1.72574 9.24545,-5.09146 z m 5.70596,-7.27633 C 317.45659,313.18041 318.4191,312 318.65019,312 c 0.72338,0 -1.6049,3.85397 -2.75929,4.56743 -0.6041,0.37335 -0.32492,-0.50159 0.62038,-1.94431 z m -1.43233,-15.20645 c 0.048,-1.16495 0.28494,-1.4019 0.60416,-0.60417 0.28887,0.72187 0.25335,1.58438 -0.0789,1.91667 -0.33229,0.33229 -0.56864,-0.25834 -0.52522,-1.3125 z m -49.23728,16.82301 C 274.99991,309.9478 282,303.76447 282,301.96667 c 0,-2.07642 -3.58597,-0.80125 -6.95784,2.47421 -1.94819,1.89248 -7.59216,5.85958 -12.54216,8.81577 -8.1927,4.89277 -9.02926,5.676 -9.32623,8.73171 -0.30742,3.16328 -0.21433,3.2748 1.61469,1.93423 1.0675,-0.78243 6.04145,-4.23973 11.05321,-7.68291 z m 21.73018,2.20427 c 11.05396,-9.14088 14.37138,-13.67692 14.40311,-19.69395 0.0173,-3.29056 -0.38228,-4.75 -1.30065,-4.75 -1.46967,0 -5.11412,3.66394 -5.96808,6 -0.43362,1.1862 -0.56485,1.1339 -0.62728,-0.25 -0.12933,-2.86674 -4.15787,-1.18349 -5.38497,2.25 -0.42218,1.18128 -0.55286,1.12816 -0.61503,-0.25 -0.13875,-3.07551 -2.64607,-1.89208 -7.0455,3.32539 -2.3538,2.79146 -8.12505,7.62896 -12.825,10.75 -7.74827,5.14529 -8.28821,5.70492 -5.78848,5.99957 1.5163,0.17872 3.5046,-0.31533 4.41846,-1.0979 0.91387,-0.78257 2.33657,-1.76568 3.16157,-2.1847 0.825,-0.41902 0.17097,0.35316 -1.4534,1.71595 -2.9323,2.46009 -2.93741,2.48288 -0.71541,3.18811 4.19151,1.33034 21.86409,-11.23305 25.15599,-17.88331 1.48561,-3.00123 2.01145,-3.49513 2.01203,-1.88984 10e-4,3.1898 -4.1331,7.57861 -13.07522,13.8803 -8.52887,6.01045 -9.51277,7.44643 -5.10214,7.44643 2.00267,0 5.12341,-1.90323 10.75,-6.55605 z M 272,317.61083 c 0,-0.2394 2.84938,-2.46855 6.33196,-4.95366 3.48257,-2.48512 7.09557,-5.56212 8.02888,-6.83778 1.57096,-2.14721 1.62064,-2.1574 0.6692,-0.13728 C 285.71698,308.47001 272,319.35662 272,317.61083 Z M 245,319 c 0,-0.55 -0.19844,-1 -0.44098,-1 -0.24254,0 -0.7191,0.45 -1.05902,1 -0.33992,0.55 -0.14148,1 0.44098,1 0.58246,0 1.05902,-0.45 1.05902,-1 z m 17.26756,-7.03226 c 7.88128,-4.71025 14.65873,-10.37478 13.63637,-11.39715 -0.24765,-0.24764 -2.46484,0.92758 -4.9271,2.6116 -2.46226,1.68403 -7.51433,4.42396 -11.22683,6.08873 -5.56106,2.49372 -6.75,3.44099 -6.75,5.37797 0,3.01887 -0.52298,3.17017 9.26756,-2.68115 z m -0.49536,-4.85665 c 4.25029,-2.1389 8.54461,-4.79422 9.54294,-5.90072 2.66977,-2.95904 0.30018,-3.7847 -3.36724,-1.17327 -1.67114,1.18996 -5.60557,3.15579 -8.74317,4.36852 -4.25111,1.64311 -5.78615,2.76419 -6.02428,4.39967 -0.41477,2.84869 -0.44903,2.85545 8.59175,-1.6942 z m 32.04353,-11.54336 C 296.39208,294.24808 300.525,291.0694 303,288.50398 308.99502,282.28996 311.74954,281 319.02366,281 c 5.29109,0 6.07793,-0.23776 5.79135,-1.75 -0.47302,-2.49602 -6.97907,-2.81119 -14.03408,-0.67983 -4.58164,1.38413 -6.51991,2.6775 -9.74576,6.50317 -8.48282,10.06012 -21.97898,13.17073 -30.64422,7.0629 l -4.43823,-3.12835 1.53399,2.96641 c 3.69207,7.13968 16.09961,8.83308 26.32902,3.59343 z m -35.7635,-6.66137 c 8.71078,-4.01506 9.33097,-6.66904 2.65982,-11.3821 -3.73695,-2.6401 -5.17082,-3.01234 -12.71205,-3.30012 -6.07507,-0.23184 -8.07207,-0.0292 -7,0.71043 0.825,0.56914 2.9625,1.0417 4.75,1.05012 1.7875,0.008 3.25,0.46531 3.25,1.01531 0,0.55 -1.2375,1.00689 -2.75,1.01531 -4.68858,0.0261 -5.62281,1.2481 -4.91305,6.42639 1.35369,9.87619 3.64629,10.48854 16.71528,4.46466 z M 268.53347,283.25 c -0.6332,-3.44581 -2.54136,-6.99355 -2.52789,-4.7 0.0107,1.81906 2.09233,8.45 2.65271,8.45 0.31036,0 0.25419,-1.6875 -0.12482,-3.75 z M 274,283.54705 C 274,279.93747 272.22237,275 270.92282,275 c -1.79531,0 -1.55899,4.2319 0.60031,10.75 0.8516,2.57065 2.47687,1.12513 2.47687,-2.20295 z m 2.97871,-4.12308 C 276.29746,276.99079 275.37197,275 274.92206,275 c -0.44991,0 -0.42863,1.2375 0.0473,2.75 0.47592,1.5125 1.18299,4.1 1.57128,5.75 0.38828,1.65 0.92439,2.40329 1.19135,1.67397 0.26696,-0.72931 -0.072,-3.31681 -0.75326,-5.75 z m 35.00045,-3.91319 c 3.38253,-1.74918 9.03888,-9.88122 12.2537,-17.61693 l 2.03045,-4.88581 -2.34321,-3.41969 c -1.28876,-1.88083 -3.82191,-4.12483 -5.62921,-4.98668 l -3.28601,-1.56698 -4.04807,8.05121 c -2.39461,4.76265 -3.81273,8.79271 -3.47189,9.86658 0.43598,1.37365 -0.10039,1.98342 -2.20437,2.50603 -3.09187,0.76798 -13.74855,4.99342 -22.48929,8.91713 l -5.70874,2.56264 1.04681,3.28086 c 0.57575,1.80447 1.19373,3.77996 1.37329,4.38997 0.39321,1.33579 27.71447,-4.63577 32.47654,-7.09833 z M 266.10941,275 C 268.06431,271.44037 273,257.66994 273,255.77546 c 0,-1.14038 -1.55941,-3.5879 -3.46536,-5.43894 -1.95619,-1.89982 -3.94159,-5.13411 -4.55889,-7.42658 l -1.09353,-4.06107 -4.27303,3.82557 c -6.5981,5.90715 -6.80049,6.45423 -6.68598,18.07319 0.11276,11.44118 0.31304,12.25237 3.02502,12.25237 1.00661,0 2.89255,0.89165 4.19099,1.98145 2.65856,2.23139 4.75136,2.23789 5.97019,0.0186 z m -107.7997,-1.18327 c 0.99535,-0.52306 4.59535,-1.2583 8,-1.63387 5.80312,-0.64015 6.20998,-0.85385 6.50516,-3.41678 0.28363,-2.46265 -0.26211,-2.99341 -5.5,-5.34911 -7.70683,-3.46608 -16.245,-6.43594 -18.22142,-6.33802 -1.03359,0.0512 -1.15426,0.25616 -0.34345,0.58333 2.94201,1.18713 0.83453,2.34789 -4.5,2.47852 l -5.75,0.1408 5.18864,0.63117 c 6.87404,0.8362 7.90202,2.08442 1.72803,2.09824 -6.29884,0.0141 -12.41667,1.0236 -12.41667,2.04886 0,0.43901 3.9375,1.0152 8.75,1.28042 9.94901,0.54831 16.25,1.55023 16.25,2.5839 0,1.13052 -6.84245,4.07581 -9.46883,4.07581 -1.32053,0 -3.55527,-0.43886 -4.96607,-0.97525 -4.05914,-1.54328 -2.98087,0.58629 1.1849,2.34018 3.83186,1.6133 9.91447,1.36739 13.55971,-0.5482 z M 180.5,269 c 0,-3.37778 -0.45833,-5.48611 -1.25,-5.75 -0.90991,-0.3033 -1.25,1.26111 -1.25,5.75 0,4.48889 0.34009,6.0533 1.25,5.75 0.79167,-0.26389 1.25,-2.37222 1.25,-5.75 z m 3.2234,-3.25 c -0.22183,-1.7875 -0.40333,-0.325 -0.40333,3.25 0,3.575 0.1815,5.0375 0.40333,3.25 0.22182,-1.7875 0.22182,-4.7125 0,-6.5 z M 176,268.94098 C 176,266.77344 175.55,265 175,265 c -0.55,0 -1,2.05156 -1,4.55902 0,2.7847 0.38919,4.31848 1,3.94098 0.55,-0.33992 1,-2.39148 1,-4.55902 z m 106.5,-0.34205 c 1.65,-0.87264 3.5475,-1.58938 4.21667,-1.59277 1.55128,-0.008 8.3823,-6.74728 10.06345,-9.92853 1.25396,-2.37286 0.43482,-4.01199 -2.03012,-4.06232 -0.4125,-0.008 -0.75,-0.43801 -0.75,-0.95464 0,-0.51663 1.83914,-0.85413 4.08699,-0.75 l 4.08698,0.18933 2.26308,-6.18359 c 1.24469,-3.40097 1.99305,-6.59629 1.66301,-7.10071 -0.33003,-0.50442 -4.65006,-1.18071 -9.60006,-1.50287 -14.547,-0.94676 -23.52744,-5.4054 -29.43733,-14.61517 l -3.20024,-4.98714 -4.93121,0.58403 C 255.44144,218.10786 254,217.9283 254,217.08027 c 0,-0.65907 -0.45,-0.92019 -1,-0.58027 -0.55,0.33992 -1,2.79957 -1,5.4659 0,4.58956 0.26516,5.06987 4.97657,9.01448 5.32026,4.45437 7.00531,4.50468 7.05384,0.2106 0.0482,-4.26696 1.59673,-0.57024 2.39412,5.7154 1.19622,9.42958 5.77827,15.09362 12.21033,15.09362 4.41807,0 4.32721,1.72889 -0.13486,2.56598 -2.50309,0.46958 -3.5,1.18388 -3.5,2.5078 0,1.01816 -0.86161,4.23058 -1.91469,7.13871 -1.05308,2.90813 -2.21036,6.30617 -2.57173,7.55119 l -0.65704,2.26368 4.82173,-1.92091 c 2.65195,-1.0565 6.17173,-2.63489 7.82173,-3.50752 z M 271,243.5 c 0,-0.91667 0.48375,-1.50542 1.075,-1.30833 0.59125,0.19708 1.075,0.78583 1.075,1.30833 0,0.5225 -0.48375,1.11125 -1.075,1.30833 C 271.48375,245.00542 271,244.41667 271,243.5 Z m -55.00273,28.4655 c 9.8237,-1.27461 16.67372,-4.73093 22.91902,-11.56428 7.57764,-8.29115 8.97611,-15.62863 3.88304,-20.37354 -3.45266,-3.21665 -5.10601,-2.48916 -11.77194,5.17974 -5.9293,6.82146 -6.15133,7.25805 -4.14609,8.15282 3.89109,1.73625 2.1842,2.63976 -4.98696,2.63976 -6.92813,0 -12.34991,1.0586 -26.14323,5.10445 l -6.74889,1.97958 1.86008,3.70798 c 1.02304,2.0394 1.66004,4.27049 1.41556,4.95799 -0.5514,1.55052 12.51511,1.66923 23.71941,0.2155 z m -79.2681,-10.56967 c -0.3323,-0.33229 -1.1948,-0.36781 -1.91667,-0.0789 -0.79773,0.31922 -0.56078,0.55618 0.60417,0.60416 1.05416,0.0434 1.64479,-0.19293 1.3125,-0.52522 z M 330.209,246.02324 c -2.94367,-2.45442 -13.03574,-6.24258 -15.11315,-5.67288 -1.23513,0.33872 -1.09583,0.59875 0.61629,1.15037 1.21668,0.39201 4.81668,1.9802 8,3.52933 6.89033,3.3531 9.87429,3.80926 6.49686,0.99318 z M 254,246 c 0,-0.55 -0.47656,-1 -1.05902,-1 -0.58246,0 -0.7809,0.45 -0.44098,1 0.33992,0.55 0.81648,1 1.05902,1 0.24254,0 0.44098,-0.45 0.44098,-1 z m 80.39301,-3.58179 c 1.05169,-2.74066 0.73988,-3.08545 -5.20179,-5.75191 -7.98067,-3.58151 -12.58478,-3.90578 -13.01016,-0.9163 -0.22861,1.60663 0.20013,2.27181 1.49939,2.32626 1.00075,0.0419 4.74455,1.34227 8.31955,2.88963 7.94113,3.43714 7.65065,3.38688 8.39301,1.45232 z m -75.82643,-0.52594 c 0.37654,-0.60926 -0.9469,-2.73926 -2.94098,-4.73334 L 252,233.53333 v 2.79908 c 0,5.33035 4.40393,9.05911 6.56658,5.55986 z M 243.5,236.41533 c -3.17606,-2.54656 -4.5,-2.99185 -4.5,-1.51353 0,1.15416 6.27437,5.15923 6.97374,4.45149 0.28944,-0.29291 -0.82374,-1.61499 -2.47374,-2.93796 z m 16.42061,-1.01704 c -1.33134,-1.4266 -3.71019,-3.51755 -5.28634,-4.64656 -2.86125,-2.04952 -2.86403,-2.04956 -1.77931,-0.0227 1.20076,2.24365 8.39929,8.34256 9.06565,7.68082 0.23134,-0.22973 -0.66866,-1.58492 -2,-3.01152 z M 337,236.44377 c 0,-0.79222 -8.8868,-4.62445 -12.75,-5.49814 -5.41967,-1.2257 -3.63596,0.39668 3.5086,3.19125 6.90901,2.70244 9.2414,3.28466 9.2414,2.30689 z m -30.83623,-1.89086 c 8.2748,-1.75382 11.86089,-3.57757 16.85526,-8.57194 3.6182,-3.6182 8.98097,-12.54387 8.98097,-14.94773 0,-2.18376 -1.5735,-0.86571 -3.24937,2.72186 -0.96215,2.05969 -1.46679,2.8449 -1.1214,1.7449 2.48823,-7.92474 0.229,-9.06677 -3.61223,-1.82597 -1.36376,2.57072 -3.95049,6.23366 -5.74829,8.13988 -3.28739,3.48565 -4.2264,6.18609 -2.15106,6.18609 1.78035,0 9.11204,-7.81934 8.40474,-8.96376 -0.35223,-0.56993 0.0918,-1.03624 0.98669,-1.03624 1.39944,0 1.33606,0.40873 -0.45295,2.92117 -4.24859,5.9666 -13.46558,11.90316 -16.60826,10.6972 -0.72526,-0.27831 -1.48174,-0.0168 -1.68106,0.58121 -0.25768,0.77304 -0.97979,0.75681 -2.49887,-0.0562 C 303.09289,231.51453 300.132,231 297.68819,231 c -2.64732,0 -4.92635,-0.58203 -5.63837,-1.43997 -0.65728,-0.79198 -2.17488,-1.63069 -3.37244,-1.86381 -1.67977,-0.32699 -1.51348,-0.45498 0.72761,-0.56004 2.7869,-0.13064 2.83523,-0.21326 1.18887,-2.03247 -1.24861,-1.37969 -1.37788,-2.00904 -0.47453,-2.31015 0.69194,-0.23065 1.36014,-2.4542 1.50936,-5.02266 0.26118,-4.49529 0.1387,-4.70623 -4.97392,-8.5663 -5.21655,-3.93853 -5.2528,-3.94851 -7.55901,-2.08106 -2.11348,1.71139 -2.01968,2.37325 0.27692,1.95399 0.47998,-0.0876 0.62338,0.49035 0.31868,1.28438 -0.82886,2.15999 1.70203,5.08485 3.72741,4.30763 0.9394,-0.36048 1.43336,-1.09978 1.0977,-1.64289 -0.33566,-0.54311 0.73164,-0.21731 2.37177,0.724 1.98034,1.13655 2.58396,1.95952 1.79692,2.4499 -0.907,0.56511 -0.88979,1.21499 0.0733,2.76894 1.5135,2.44197 1.4096,2.45993 -2.61534,0.45202 -1.74028,-0.86816 -2.91105,-1.98801 -2.6017,-2.48854 0.30934,-0.50053 -0.0826,-0.66253 -0.87104,-0.35998 -0.93048,0.35706 -2.44001,-1.03773 -4.30194,-3.97494 -1.57765,-2.48877 -3.41683,-4.54146 -4.08707,-4.56154 -1.30494,-0.0391 -0.75519,2.38891 1.12385,4.96349 0.95448,1.30779 0.86742,1.32156 -0.6794,0.1075 -0.97579,-0.76588 -2.02475,-1.14192 -2.33102,-0.83565 -0.97342,0.97343 1.6575,4.81385 2.80987,4.10165 0.68072,-0.42071 0.82025,-0.22285 0.36374,0.5158 -0.98155,1.58818 0.95822,3.81692 6.43158,7.38968 2.475,1.61556 4.05,2.77396 3.5,2.57422 -7.07809,-2.57058 -8.49589,-3.56172 -11.36576,-7.9455 C 272.41041,216.27452 271,213.64307 271,213.06005 c 0,-1.59694 -1.98124,-1.2725 -2.63514,0.43152 -0.3148,0.82036 0.3751,3.09739 1.53311,5.06008 1.15801,1.96268 1.6515,3.28794 1.09664,2.94502 -0.55486,-0.34292 -1.6998,-1.95967 -2.54431,-3.59278 -0.84451,-1.6331 -1.96466,-2.70403 -2.48922,-2.37984 -2.45698,1.5185 7.1488,12.50978 14.03892,16.06383 7.78714,4.01675 16.52795,5.00731 26.16377,2.96503 z M 294.75,233.29427 c 1.2375,-0.23836 3.2625,-0.23836 4.5,0 1.2375,0.23835 0.225,0.43337 -2.25,0.43337 -2.475,0 -3.4875,-0.19502 -2.25,-0.43337 z m -10.25,-1.82946 c -2.50062,-1.20445 -2.58385,-1.34326 -0.5,-0.83393 2.8335,0.69256 6.0185,2.31592 4.5,2.29361 -0.55,-0.008 -2.35,-0.66494 -4,-1.45968 z m -9.73422,-5.56131 -3.26578,-3.0965 3.21976,2.14306 c 1.77087,1.17868 3.48492,2.57211 3.80902,3.0965 1.15944,1.87602 -0.55244,0.90109 -3.763,-2.14306 z m 4.15853,-7.6535 -2.42431,-2.75 2.75,2.42431 c 2.57029,2.26589 3.20859,3.07569 2.42431,3.07569 -0.17912,0 -1.41662,-1.2375 -2.75,-2.75 z m -33.10789,13.00855 c -0.359,-3.11033 -3.22066,-4.25347 -4.20785,-1.68089 -0.74554,1.94285 0.9815,4.42234 3.0803,4.42234 0.98443,0 1.34327,-0.87246 1.12755,-2.74145 z M 338.85764,229.25 c 4.15855,-8.21507 3.87486,-13.30273 -0.87885,-15.76097 -4.02158,-2.07964 -4.5648,-1.92088 -6.02571,1.76097 -0.70925,1.7875 -2.56385,5.18506 -4.12132,7.55013 -3.6642,5.56423 -3.66059,5.57936 1.91824,8.03977 6.40374,2.82421 6.91867,2.73432 9.10764,-1.5899 z m -30.07412,0.0163 c -2.59406,-0.20525 -7.09406,-0.20738 -10,-0.005 -2.90594,0.20264 -0.78352,0.37057 4.71648,0.37317 5.5,0.003 7.87758,-0.16319 5.28352,-0.36844 z m 4.02838,-5.5163 c 0.29984,-1.5675 -0.65746,-1.75 -9.17956,-1.75 -5.26418,0 -9.79039,0.44671 -10.13234,1 -1.46311,2.36736 0.9876,3.06274 9.82012,2.78645 7.79123,-0.24373 9.20695,-0.54747 9.49178,-2.03645 z m 9.74221,-9.87821 c 2.42017,-4.75397 2.25414,-7.19422 -0.27939,-4.10625 -0.78267,0.95395 -1.13811,1.17196 -0.78986,0.48446 0.34825,-0.6875 0.3396,-1.72501 -0.0192,-2.30558 -0.35881,-0.58057 -2.15393,1.32587 -3.98916,4.23653 -3.48718,5.53067 -3.73726,7.06502 -0.76792,4.71155 1.67338,-1.3263 1.67453,-1.26344 0.0242,1.32232 -0.95301,1.49315 -1.73274,3.25909 -1.73274,3.92431 0,2.12359 5.11292,-3.47207 7.55411,-8.26734 z M 312,218.21731 c 0,-0.43048 -3.2625,-0.63493 -7.25,-0.45434 -11.31757,0.51256 -12.11578,0.95192 -2,1.10085 5.0875,0.0749 9.25,-0.21603 9.25,-0.64651 z m -24.66615,-2.31651 c 0.45861,-0.34236 0.21315,-0.86066 -0.54548,-1.15177 -0.8674,-0.33285 -1.43532,0.21416 -1.53021,1.47387 -0.083,1.10174 0.16247,1.62004 0.54547,1.15177 0.38301,-0.46827 1.0716,-1.13151 1.53022,-1.47387 z M 257,216 c 0,-0.55 -0.47656,-1 -1.05902,-1 -0.58246,0 -0.7809,0.45 -0.44098,1 0.33992,0.55 0.81648,1 1.05902,1 0.24254,0 0.44098,-0.45 0.44098,-1 z m 8,-2 c 1.21948,-0.78809 1.09025,-0.97224 -0.69098,-0.98469 -1.20504,-0.008 -2.4691,0.43469 -2.80902,0.98469 -0.78687,1.27319 1.52988,1.27319 3.5,0 z m -5.47354,-1.80687 c -0.30789,-0.30789 -1.11479,-6.4e-4 -1.79313,0.68278 -0.98026,0.98762 -0.8654,1.10248 0.5598,0.5598 0.98622,-0.37553 1.54122,-0.93469 1.23333,-1.24258 z m 56.15665,-0.38063 c -0.31922,-0.79773 -0.55618,-0.56078 -0.60416,0.60417 -0.0434,1.05416 0.19293,1.64479 0.52522,1.3125 0.33229,-0.3323 0.36781,-1.1948 0.0789,-1.91667 z M 272.5,211 c 0.33992,-0.55 0.14148,-1 -0.44098,-1 -0.58246,0 -1.05902,0.45 -1.05902,1 0,0.55 0.19844,1 0.44098,1 0.24254,0 0.7191,-0.45 1.05902,-1 z m 16.88486,-2.21553 c -1.58667,-1.21853 -3.19789,-2.668 -3.58049,-3.22104 -0.38259,-0.55303 -0.9641,-0.73704 -1.29223,-0.4089 -0.71018,0.71018 5.17534,5.84547 6.69944,5.84547 0.58198,0 -0.24005,-0.99699 -1.82672,-2.21553 z m -19.95512,0.32922 c 0.30127,-0.48747 -0.34717,-1.12034 -1.44099,-1.40638 -1.2888,-0.33703 -1.98875,-0.0251 -1.98875,0.88631 0,1.54519 2.55659,1.93286 3.42974,0.52007 z m 49.14486,-1.2344 C 318.87349,207.39568 318.22898,207 317.14235,207 c -1.08663,0 -2.18126,-0.5625 -2.43251,-1.25 -0.25125,-0.6875 -0.40125,-0.0841 -0.33333,1.3409 0.12173,2.554 2.79644,3.05631 4.19809,0.78839 z M 292,197.46432 v -9.41765 l -4.28995,4.22666 -4.28995,4.22667 1.89565,4.5 c 1.97244,4.68227 4.36711,7.31404 5.83157,6.40895 C 291.61629,207.11911 292,202.64402 292,197.46432 Z M 270.5,206 c 0.33992,-0.55 0.16803,-1 -0.38197,-1 -0.55,0 -1.27811,0.45 -1.61803,1 -0.33992,0.55 -0.16803,1 0.38197,1 0.55,0 1.27811,-0.45 1.61803,-1 z m 12.79787,-2.98079 C 284.44775,201.98883 281.9413,197 280.27374,197 276.81047,197 273,201.76117 273,206.08853 c 0,0.82733 8.91444,-1.82965 10.29787,-3.06932 z M 272.5,203 c 0.33992,-0.55 0.11492,-1 -0.5,-1 -0.61492,0 -0.85914,-0.41891 -0.54271,-0.9309 0.31644,-0.512 0.10684,-1.22045 -0.46575,-1.57433 -0.5726,-0.35389 -0.97665,-0.27248 -0.8979,0.1809 0.35171,2.02461 -0.17727,3.39068 -1.09364,2.82433 -0.55,-0.33992 -1,-0.14148 -1,0.44098 0,1.34414 3.67596,1.39235 4.5,0.059 z m 8.98327,-10.99364 c 2.77401,-1.05468 4.85465,-4.95239 6.05132,-11.3361 l 0.71791,-3.82973 -7.87625,0.62642 c -8.7155,0.69317 -11.6644,-0.2099 -9.4395,-2.89073 0.76511,-0.92191 3.02154,-1.62533 5.43569,-1.69453 3.81158,-0.10926 3.8979,-0.16948 1.12756,-0.7866 -5.07402,-1.13029 -6.93292,-0.20393 -9.79002,4.87873 -3.53033,6.2803 -3.59103,8.31165 -0.20998,7.02618 1.60745,-0.61115 2.5,-0.60231 2.5,0.0248 0,0.53639 -0.75,0.97525 -1.66667,0.97525 -2.28279,0 -0.84677,1.26562 2.98844,2.63384 l 3.17823,1.13383 -2.75,1.09141 c -1.5125,0.60028 -2.75,1.55256 -2.75,2.11617 0,1.31235 9.05401,1.33491 12.48327,0.0311 z M 324.5,187 c 0.78218,-1.2656 -0.54163,-1.2656 -2.5,0 -1.29269,0.8354 -1.26629,0.97149 0.19098,0.98469 0.93004,0.008 1.9691,-0.43469 2.30902,-0.98469 z m -2.04303,-6.31543 c -0.41386,-1.64894 -1.13851,-2.36027 -2.04867,-2.01101 -1.99859,0.76693 -1.74902,4.104 0.3417,4.56905 2.35451,0.52371 2.44602,0.38658 1.70697,-2.55804 z m 6.03595,1.32688 c 0.35034,-0.56686 -0.0511,-0.7345 -0.94098,-0.39301 -1.73242,0.66479 -2.04939,1.38156 -0.61096,1.38156 0.51754,0 1.21592,-0.44485 1.55194,-0.98855 z m -2.89157,-5.83867 c -1.77284,-1.77284 -3.13631,-1.00924 -2.26274,1.26723 0.35196,0.9172 1.23032,1.2789 2.20108,0.90639 1.46073,-0.56054 1.46664,-0.76864 0.0617,-2.17362 z m -31.38706,0.13329 c 1.52443,-1.37959 1.76302,-1.41052 1.28571,-0.16667 -0.36389,0.94829 -0.0216,1.52727 0.90295,1.52727 1.13402,0 1.2551,-0.43709 0.50785,-1.83334 C 296.30077,174.69347 296.28968,174 296.88148,174 c 0.52352,0 1.17883,0.5625 1.45624,1.25 0.30132,0.74674 0.53617,0.54544 0.58333,-0.5 0.0434,-0.9625 -0.57096,-1.75 -1.36529,-1.75 -1.57193,0 -7.64256,4.91667 -6.1345,4.9684 0.50669,0.0174 1.76356,-0.73067 2.79303,-1.66233 z M 274.5,176 c 0.33992,-0.55 0.14148,-1 -0.44098,-1 -0.58246,0 -1.05902,0.45 -1.05902,1 0,0.55 0.19844,1 0.44098,1 0.24254,0 0.7191,-0.45 1.05902,-1 z m 6,0 c 0.33992,-0.55 0.14148,-1 -0.44098,-1 -0.58246,0 -1.05902,0.45 -1.05902,1 0,0.55 0.19844,1 0.44098,1 0.24254,0 0.7191,-0.45 1.05902,-1 z m 7,-2 c -0.33992,-0.55 -2.05398,-0.95514 -3.80902,-0.90032 -3.04737,0.0952 -3.07847,0.13571 -0.69098,0.90032 3.59081,1.14998 5.21073,1.14998 4.5,0 z m -1.5,-4 c -0.825,-0.53316 -2.625,-0.92302 -4,-0.86637 -2.30634,0.095 -2.26761,0.16213 0.5,0.86637 4.32246,1.09988 5.20194,1.09988 3.5,0 z m 12.28651,-5.73598 c -2.86742,-0.2013 -7.81742,-0.20315 -11,-0.004 -3.18258,0.19905 -0.83651,0.36376 5.21349,0.36601 6.05,0.002 8.65393,-0.1606 5.78651,-0.36191 z m -14.02276,-1.96795 c -1.22994,-0.23736 -3.47994,-0.24351 -5,-0.0136 -1.52006,0.22985 -0.51375,0.42406 2.23625,0.43157 2.75,0.007 3.99369,-0.18056 2.76375,-0.41792 z m 5.98625,-2.03331 c -2.8875,-0.202 -7.6125,-0.202 -10.5,0 -2.8875,0.202 -0.525,0.36728 5.25,0.36728 5.775,0 8.1375,-0.16528 5.25,-0.36728 z m 33.27646,-2.06963 c -0.30789,-0.30789 -1.11479,-6.4e-4 -1.79313,0.68278 -0.98026,0.98762 -0.8654,1.10248 0.5598,0.5598 0.98622,-0.37553 1.54122,-0.93469 1.23333,-1.24258 z M 125.2,238.8 C 124.34191,237.94191 124,231.54115 124,216.33518 124,192.93854 123.98305,193 130.43426,193 H 133 v -13.63398 c 0,-15.90091 0.95865,-19.9014 6.19437,-25.8495 8.61588,-9.78815 25.68534,-10.8291 35.54986,-2.16794 6.65098,5.83964 8.23483,11.10275 8.246,27.40142 L 183,193 h 2.92857 c 5.79219,0 6.07143,1.08082 6.07143,23.5 0,17.17316 -0.24578,20.60292 -1.57143,21.92857 C 188.37573,240.48141 127.2296,240.8296 125.2,238.8 Z M 186,216.5 V 199 h -28 -28 v 17.5 17.5 h 28 28 z m -9,-37.4349 c 0,-7.6642 -0.47863,-15.2017 -1.06362,-16.75 -4.44683,-11.76953 -21.87801,-15.39306 -31.27566,-6.50148 -5.32806,5.04115 -6.03624,7.54938 -6.47593,22.93638 L 137.77759,193 H 157.3888 177 Z m 72.96494,-0.66259 c -0.63966,-22.83084 -0.93888,-23.63251 -9.483,-25.40626 -9.70609,-2.01498 -18.5381,1.06272 -18.4465,6.42806 0.0329,1.92598 0.13325,1.89906 1.39163,-0.37321 1.78861,-3.22971 3.75753,-3.89669 11.7515,-3.98081 7.00757,-0.0737 9.88729,1.32837 9.75804,4.75114 -0.0459,1.21593 -0.3096,1.06668 -0.9567,-0.54151 -1.11294,-2.76587 -4.47565,-3.65233 -11.61036,-3.06066 -4.58392,0.38013 -5.92578,0.94548 -7.78831,3.28131 -2.87399,3.60434 -4.88633,2.67305 -3.40515,-1.57587 1.6843,-4.83156 5.08438,-6.40369 13.75985,-6.36227 14.8136,0.0707 16.30941,2.90111 15.84054,29.97361 L 250.5,197.5 Z M 303.5,125 c -1.92824,-0.82859 -1.92138,-0.86195 0.19098,-0.92971 1.20504,-0.0387 2.4691,0.37971 2.80902,0.92971 0.731,1.18278 -0.24752,1.18278 -3,0 z m -3.25,-34.367611 c -3.4375,-1.13123 -6.25,-2.397171 -6.25,-2.813201 0,-0.41603 0.57541,-0.535612 1.27869,-0.265738 2.96022,1.135942 5.18412,-2.606776 9.31278,-15.672924 L 308.81946,58.5 306.65973,56.089871 c -1.82397,-2.03544 -1.8819,-2.31017 -0.37265,-1.767154 0.9829,0.353636 4.3579,1.427023 7.5,2.385303 4.65485,1.419637 5.21715,1.804222 3.0361,2.076515 -3.7022,0.4622 -3.98655,0.98646 -8.77671,16.181659 l -4.24511,13.466194 2.65508,2.283806 c 3.12614,2.68899 2.18053,2.676221 -6.20644,-0.0838 z m -107.34308,-0.317687 2.40692,-1.987251 -3.29923,-13.413726 c -3.84916,-15.64964 -4.27297,-16.650533 -7.26242,-17.151369 -2.39489,-0.401227 1.8984,-1.970074 9.30229,-3.399228 l 3.44552,-0.665081 -2.4504,2.022464 c -2.38369,1.967399 -2.41872,2.192865 -1.28648,8.281166 0.64016,3.442286 1.41032,6.505094 1.71146,6.806241 0.65352,0.65352 20.47085,-3.910599 21.05024,-4.84807 0.22111,-0.357766 -0.37487,-3.529186 -1.32441,-7.047598 -1.55603,-5.765769 -2.02121,-6.456376 -4.71341,-6.997589 -3.34979,-0.673407 -2.58164,-1.134659 4.70582,-2.825701 6.46347,-1.499837 7.37944,-1.372932 4.8535,0.672445 l -2.17524,1.761405 3.187,13.488595 c 4.27235,18.082267 4.54185,18.494894 10.35074,15.848185 2.93004,-1.335014 4.795,-5.05909 10.69655,-21.35959 6.26864,-17.314427 6.30989,-17.311662 12.61817,0.84574 6.5451,18.839074 6.81532,19.346966 11.03409,20.739284 4.93053,1.627224 5.74954,0.318768 8.16817,-13.04958 2.56039,-14.151853 2.61968,-17.618351 0.3242,-18.955345 -1.60807,-0.936618 -1.5878,-1.021135 0.25,-1.042136 1.1,-0.01257 4.91432,0.44997 8.47626,1.027866 11.56565,1.876434 15.859,6.426576 13.59835,14.411676 C 294.7723,69.843639 286.6765,74.022184 282,71 c -1.12759,-0.728704 -0.63104,-0.976978 2,-1 4.52874,-0.03963 5.59728,-0.791915 7.46121,-5.252927 C 294.67139,57.064042 291.62074,51 284.54545,51 282.59545,51 281,51.255998 281,51.568884 c 0,0.312887 -1.18387,7.148303 -2.63083,15.189814 l -2.63083,14.62093 2.88083,2.415112 c 2.85145,2.390485 2.85534,2.408476 0.38083,1.764304 -5.86336,-1.526371 -16.88469,-3.029261 -21.75,-2.965873 -5.27976,0.06879 -6.96958,-0.910228 -3.25,-1.88292 2.2494,-0.588232 2.4701,-2.477236 0.93518,-8.00459 l -1.05367,-3.79434 -6.58395,0.29434 -6.58395,0.294339 -1.21513,4.127474 C 238.19785,78.0454 239.01989,81 241.54969,81 242.34736,81 243,81.45 243,82 c 0,0.568482 -2.92997,1 -6.7899,1 -3.73445,0 -9.3814,0.675 -12.54879,1.5 -7.38424,1.923349 -8.66551,1.89167 -5.7614,-0.14245 2.052,-1.437274 2.27638,-2.21803 1.79622,-6.25 -0.3018,-2.534153 -1.00352,-5.799738 -1.55939,-7.256857 l -1.01067,-2.649307 -10.31304,2.550149 c -5.67216,1.402582 -10.44579,2.652533 -10.60806,2.777668 -0.60463,0.466278 2.09651,10.053708 3.44307,12.220797 0.87821,1.413363 2.38106,2.25 4.04168,2.25 3.54856,0 2.2751,1.074067 -2.40008,2.024285 -2.0843,0.423629 -5.36464,1.109407 -7.28964,1.523951 l -3.5,0.753717 z M 250.31334,59.417951 C 247.49774,51.043704 247.04609,51.011359 244.47726,59 c -0.97271,3.025 -1.97617,6.0625 -2.22991,6.75 -0.33402,0.905065 1.06695,1.25 5.07695,1.25 h 5.53828 z"
       id="path176" />
  </g>
</svg>
